<?xml version="1.0" encoding="UTF-8" standalone="no"?>
<!DOCTYPE svg PUBLIC "-//W3C//DTD SVG 1.1//EN" "http://www.w3.org/Graphics/SVG/1.1/DTD/svg11.dtd">
<svg version="1.1" xmlns="http://www.w3.org/2000/svg" xmlns:xlink="http://www.w3.org/1999/xlink" preserveAspectRatio="xMidYMid meet" viewBox="9.83003 7.126999999999997 418.01196999999996 291.84700000000004" width="414.01" height="287.85"><defs><path d="M353.84 20.63C353.68 20.46 353.98 19.83 353.84 19.63" id="bBTjIVBzV"></path><path d="M270.84 112.63C271.01 112.46 271.64 112.76 271.84 112.63C271.84 112.96 271.84 113.29 271.84 113.63C271.51 113.63 271.18 113.63 270.84 113.63C270.98 113.43 270.68 112.79 270.84 112.63Z" id="a9lUdYMjU"></path><path d="M271.84 112.63C272.18 112.63 272.51 112.63 272.84 112.63C272.71 112.83 273.01 113.46 272.84 113.63C272.68 113.79 272.04 113.49 271.84 113.63C271.84 113.29 271.84 112.96 271.84 112.63Z" id="c16OKNgBc2"></path><path d="M422.75 115.6L422.77 115.6L422.79 115.6L422.81 115.61L422.83 115.62L422.84 115.63L422.84 116.63L423.84 116.63L423.84 119.63L424.84 119.63L424.84 288.63L424.83 288.64L424.81 288.64L424.79 288.65L424.77 288.66L424.75 288.66L424.73 288.66L424.7 288.66L424.68 288.66L424.65 288.66L424.62 288.66L424.6 288.66L424.57 288.65L424.54 288.65L424.51 288.65L424.48 288.64L424.45 288.64L424.42 288.63L424.39 288.63L424.36 288.62L424.33 288.61L424.3 288.61L424.27 288.6L424.24 288.6L424.21 288.59L424.18 288.59L424.15 288.58L424.12 288.58L424.09 288.58L424.07 288.58L424.04 288.58L424.02 288.58L423.99 288.58L423.97 288.58L423.95 288.58L423.92 288.58L423.91 288.59L423.89 288.6L423.87 288.61L423.86 288.62L423.84 288.63L423.83 288.64L423.82 288.66L423.81 288.67L423.81 288.69L423.8 288.71L423.8 288.73L423.79 288.75L423.79 288.78L423.79 288.8L423.79 288.83L423.79 288.85L423.79 288.88L423.8 288.91L423.8 288.94L423.8 288.96L423.81 288.99L423.81 289.02L423.82 289.05L423.82 289.08L423.83 289.11L423.84 289.15L423.84 289.18L423.85 289.21L423.85 289.24L423.86 289.27L423.86 289.3L423.87 289.33L423.87 289.35L423.87 289.38L423.88 289.41L423.88 289.44L423.88 289.46L423.88 289.49L423.88 289.51L423.87 289.53L423.87 289.55L423.87 289.58L423.86 289.59L423.85 289.61L423.84 289.63L423.84 291.63L423.83 291.64L423.81 291.64L423.79 291.65L423.77 291.66L423.75 291.66L423.73 291.66L423.7 291.66L423.68 291.66L423.65 291.66L423.62 291.66L423.6 291.66L423.57 291.65L423.54 291.65L423.51 291.65L423.48 291.64L423.45 291.64L423.42 291.63L423.39 291.63L423.36 291.62L423.33 291.61L423.3 291.61L423.27 291.6L423.24 291.6L423.21 291.59L423.18 291.59L423.15 291.58L423.12 291.58L423.09 291.58L423.07 291.58L423.04 291.58L423.02 291.58L422.99 291.58L422.97 291.58L422.95 291.58L422.92 291.58L422.91 291.59L422.89 291.6L422.87 291.61L422.86 291.62L422.84 291.63L422.83 291.64L422.82 291.66L422.81 291.67L422.81 291.69L422.8 291.71L422.8 291.73L422.79 291.75L422.79 291.78L422.79 291.8L422.79 291.83L422.79 291.85L422.79 291.88L422.8 291.91L422.8 291.94L422.8 291.96L422.81 291.99L422.81 292.02L422.82 292.05L422.82 292.08L422.83 292.11L422.84 292.15L422.84 292.18L422.85 292.21L422.85 292.24L422.86 292.27L422.86 292.3L422.87 292.33L422.87 292.35L422.87 292.38L422.88 292.41L422.88 292.44L422.88 292.46L422.88 292.49L422.88 292.51L422.87 292.53L422.87 292.55L422.87 292.58L422.86 292.59L422.85 292.61L422.84 292.63L422.83 292.64L422.81 292.64L422.79 292.65L422.77 292.66L422.75 292.66L422.73 292.66L422.7 292.66L422.68 292.66L422.65 292.66L422.62 292.66L422.6 292.66L422.57 292.65L422.54 292.65L422.51 292.65L422.48 292.64L422.45 292.64L422.42 292.63L422.39 292.63L422.36 292.62L422.33 292.61L422.3 292.61L422.27 292.6L422.24 292.6L422.21 292.59L422.18 292.59L422.15 292.58L422.12 292.58L422.09 292.58L422.07 292.58L422.04 292.58L422.02 292.58L421.99 292.58L421.97 292.58L421.95 292.58L421.92 292.58L421.91 292.59L421.89 292.6L421.87 292.61L421.86 292.62L421.84 292.63L421.83 292.64L421.82 292.66L421.81 292.67L421.81 292.69L421.8 292.71L421.8 292.73L421.79 292.75L421.79 292.78L421.79 292.8L421.79 292.83L421.79 292.85L421.79 292.88L421.8 292.91L421.8 292.94L421.8 292.96L421.81 292.99L421.81 293.02L421.82 293.05L421.82 293.08L421.83 293.11L421.84 293.15L421.84 293.18L421.85 293.21L421.85 293.24L421.86 293.27L421.86 293.3L421.87 293.33L421.87 293.35L421.87 293.38L421.88 293.41L421.88 293.44L421.88 293.46L421.88 293.49L421.88 293.51L421.87 293.53L421.87 293.55L421.87 293.58L421.86 293.59L421.85 293.61L421.84 293.63L420.84 293.63L420.84 294.63L418.84 294.63L418.83 294.64L418.81 294.64L418.79 294.65L418.77 294.66L418.75 294.66L418.73 294.66L418.7 294.66L418.68 294.66L418.65 294.66L418.62 294.66L418.6 294.66L418.57 294.65L418.54 294.65L418.51 294.65L418.48 294.64L418.45 294.64L418.42 294.63L418.39 294.63L418.36 294.62L418.33 294.61L418.3 294.61L418.27 294.6L418.24 294.6L418.21 294.59L418.18 294.59L418.15 294.58L418.12 294.58L418.09 294.58L418.07 294.58L418.04 294.58L418.02 294.58L417.99 294.58L417.97 294.58L417.95 294.58L417.92 294.58L417.91 294.59L417.89 294.6L417.87 294.61L417.86 294.62L417.84 294.63L417.83 294.64L417.82 294.66L417.81 294.67L417.81 294.69L417.8 294.71L417.8 294.73L417.79 294.75L417.79 294.78L417.79 294.8L417.79 294.83L417.79 294.85L417.79 294.88L417.8 294.91L417.8 294.94L417.8 294.96L417.81 294.99L417.81 295.02L417.82 295.05L417.82 295.08L417.83 295.11L417.84 295.15L417.84 295.18L417.85 295.21L417.85 295.24L417.86 295.27L417.86 295.3L417.87 295.33L417.87 295.35L417.87 295.38L417.88 295.41L417.88 295.44L417.88 295.46L417.88 295.49L417.88 295.51L417.87 295.53L417.87 295.55L417.87 295.58L417.86 295.59L417.85 295.61L417.84 295.63L272.84 295.63L272.83 295.61L272.83 295.59L272.82 295.58L272.81 295.55L272.81 295.53L272.81 295.51L272.81 295.49L272.81 295.46L272.81 295.44L272.81 295.41L272.81 295.38L272.81 295.35L272.82 295.33L272.82 295.3L272.83 295.27L272.83 295.24L272.84 295.21L272.84 295.18L272.85 295.15L272.85 295.11L272.86 295.08L272.87 295.05L272.87 295.02L272.88 294.99L272.88 294.96L272.88 294.94L272.89 294.91L272.89 294.88L272.89 294.85L272.89 294.83L272.89 294.8L272.89 294.78L272.89 294.75L272.89 294.73L272.88 294.71L272.88 294.69L272.87 294.67L272.86 294.66L272.85 294.64L272.84 294.63L272.83 294.62L272.81 294.61L272.8 294.6L272.78 294.59L272.76 294.58L272.74 294.58L272.72 294.58L272.69 294.58L272.67 294.58L272.64 294.58L272.62 294.58L272.59 294.58L272.56 294.58L272.53 294.58L272.5 294.59L272.48 294.59L272.45 294.6L272.42 294.6L272.38 294.61L272.35 294.61L272.32 294.62L272.29 294.63L272.26 294.63L272.23 294.64L272.2 294.64L272.17 294.65L272.14 294.65L272.11 294.65L272.09 294.66L272.06 294.66L272.03 294.66L272.01 294.66L271.98 294.66L271.96 294.66L271.94 294.66L271.91 294.66L271.89 294.65L271.88 294.64L271.86 294.64L271.84 294.63L269.84 294.63L269.83 294.61L269.83 294.59L269.82 294.58L269.81 294.55L269.81 294.53L269.81 294.51L269.81 294.49L269.81 294.46L269.81 294.44L269.81 294.41L269.81 294.38L269.81 294.35L269.82 294.33L269.82 294.3L269.83 294.27L269.83 294.24L269.84 294.21L269.84 294.18L269.85 294.15L269.85 294.11L269.86 294.08L269.87 294.05L269.87 294.02L269.88 293.99L269.88 293.96L269.88 293.94L269.89 293.91L269.89 293.88L269.89 293.85L269.89 293.83L269.89 293.8L269.89 293.78L269.89 293.75L269.89 293.73L269.88 293.71L269.88 293.69L269.87 293.67L269.86 293.66L269.85 293.64L269.84 293.63L269.83 293.62L269.81 293.61L269.8 293.6L269.78 293.59L269.76 293.58L269.74 293.58L269.72 293.58L269.69 293.58L269.67 293.58L269.64 293.58L269.62 293.58L269.59 293.58L269.56 293.58L269.53 293.58L269.5 293.59L269.48 293.59L269.45 293.6L269.42 293.6L269.38 293.61L269.35 293.61L269.32 293.62L269.29 293.63L269.26 293.63L269.23 293.64L269.2 293.64L269.17 293.65L269.14 293.65L269.11 293.65L269.09 293.66L269.06 293.66L269.03 293.66L269.01 293.66L268.98 293.66L268.96 293.66L268.94 293.66L268.91 293.66L268.89 293.65L268.88 293.64L268.86 293.64L268.84 293.63L268.83 293.61L268.83 293.59L268.82 293.58L268.81 293.55L268.81 293.53L268.81 293.51L268.81 293.49L268.81 293.46L268.81 293.44L268.81 293.41L268.81 293.38L268.81 293.35L268.82 293.33L268.82 293.3L268.83 293.27L268.83 293.24L268.84 293.21L268.84 293.18L268.85 293.15L268.85 293.11L268.86 293.08L268.87 293.05L268.87 293.02L268.88 292.99L268.88 292.96L268.88 292.94L268.89 292.91L268.89 292.88L268.89 292.85L268.89 292.83L268.89 292.8L268.89 292.78L268.89 292.75L268.89 292.73L268.88 292.71L268.88 292.69L268.87 292.67L268.86 292.66L268.85 292.64L268.84 292.63L268.83 292.62L268.81 292.61L268.8 292.6L268.78 292.59L268.76 292.58L268.74 292.58L268.72 292.58L268.69 292.58L268.67 292.58L268.64 292.58L268.62 292.58L268.59 292.58L268.56 292.58L268.53 292.58L268.5 292.59L268.48 292.59L268.45 292.6L268.42 292.6L268.38 292.61L268.35 292.61L268.32 292.62L268.29 292.63L268.26 292.63L268.23 292.64L268.2 292.64L268.17 292.65L268.14 292.65L268.11 292.65L268.09 292.66L268.06 292.66L268.03 292.66L268.01 292.66L267.98 292.66L267.96 292.66L267.94 292.66L267.91 292.66L267.89 292.65L267.88 292.64L267.86 292.64L267.84 292.63L267.84 291.63L266.84 291.63L266.84 289.63L266.83 289.61L266.83 289.59L266.82 289.58L266.81 289.55L266.81 289.53L266.81 289.51L266.81 289.49L266.81 289.46L266.81 289.44L266.81 289.41L266.81 289.38L266.81 289.35L266.82 289.33L266.82 289.3L266.83 289.27L266.83 289.24L266.84 289.21L266.84 289.18L266.85 289.15L266.85 289.11L266.86 289.08L266.87 289.05L266.87 289.02L266.88 288.99L266.88 288.96L266.88 288.94L266.89 288.91L266.89 288.88L266.89 288.85L266.89 288.83L266.89 288.8L266.89 288.78L266.89 288.75L266.89 288.73L266.88 288.71L266.88 288.69L266.87 288.67L266.86 288.66L266.85 288.64L266.84 288.63L266.83 288.62L266.81 288.61L266.8 288.6L266.78 288.59L266.76 288.58L266.74 288.58L266.72 288.58L266.69 288.58L266.67 288.58L266.64 288.58L266.62 288.58L266.59 288.58L266.56 288.58L266.53 288.58L266.5 288.59L266.48 288.59L266.45 288.6L266.42 288.6L266.38 288.61L266.35 288.61L266.32 288.62L266.29 288.63L266.26 288.63L266.23 288.64L266.2 288.64L266.17 288.65L266.14 288.65L266.11 288.65L266.09 288.66L266.06 288.66L266.03 288.66L266.01 288.66L265.98 288.66L265.96 288.66L265.94 288.66L265.91 288.66L265.89 288.65L265.88 288.64L265.86 288.64L265.84 288.63L265.84 119.63L265.86 119.62L265.88 119.61L265.89 119.6L265.91 119.6L265.94 119.6L265.96 119.59L265.98 119.59L266.01 119.59L266.03 119.59L266.06 119.59L266.09 119.6L266.11 119.6L266.14 119.6L266.17 119.61L266.2 119.61L266.23 119.62L266.26 119.62L266.29 119.63L266.35 119.64L266.38 119.65L266.42 119.65L266.45 119.66L266.48 119.66L266.5 119.67L266.53 119.67L266.56 119.67L266.59 119.68L266.62 119.68L266.64 119.68L266.67 119.68L266.69 119.68L266.72 119.68L266.74 119.67L266.76 119.67L266.78 119.66L266.8 119.66L266.81 119.65L266.83 119.64L266.84 119.63L266.85 119.61L266.86 119.6L266.87 119.58L266.88 119.56L266.88 119.54L266.89 119.52L266.89 119.5L266.89 119.48L266.89 119.45L266.89 119.43L266.89 119.4L266.89 119.38L266.89 119.35L266.88 119.32L266.88 119.29L266.88 119.26L266.87 119.23L266.87 119.2L266.86 119.17L266.85 119.14L266.85 119.11L266.84 119.08L266.84 119.05L266.83 119.02L266.83 118.99L266.82 118.96L266.82 118.93L266.81 118.9L266.81 118.87L266.81 118.84L266.81 118.82L266.81 118.79L266.81 118.77L266.81 118.74L266.81 118.72L266.81 118.7L266.82 118.68L266.83 118.66L266.83 118.64L266.84 118.63L266.84 116.63L266.86 116.62L266.88 116.61L266.89 116.6L266.91 116.6L266.94 116.6L266.96 116.59L266.98 116.59L267.01 116.59L267.03 116.59L267.06 116.59L267.09 116.6L267.11 116.6L267.14 116.6L267.17 116.61L267.2 116.61L267.23 116.62L267.26 116.62L267.29 116.63L267.35 116.64L267.38 116.65L267.42 116.65L267.45 116.66L267.48 116.66L267.5 116.67L267.53 116.67L267.56 116.67L267.59 116.68L267.62 116.68L267.64 116.68L267.67 116.68L267.69 116.68L267.72 116.68L267.74 116.67L267.76 116.67L267.78 116.66L267.8 116.66L267.81 116.65L267.83 116.64L267.84 116.63L267.85 116.61L267.86 116.6L267.87 116.58L267.88 116.56L267.88 116.54L267.89 116.52L267.89 116.5L267.89 116.48L267.89 116.45L267.89 116.43L267.89 116.4L267.89 116.38L267.89 116.35L267.88 116.32L267.88 116.29L267.88 116.26L267.87 116.23L267.87 116.2L267.86 116.17L267.85 116.14L267.85 116.11L267.84 116.08L267.84 116.05L267.83 116.02L267.83 115.99L267.82 115.96L267.82 115.93L267.81 115.9L267.81 115.87L267.81 115.84L267.81 115.82L267.81 115.79L267.81 115.77L267.81 115.74L267.81 115.72L267.81 115.7L267.82 115.68L267.83 115.66L267.83 115.64L267.84 115.63L267.86 115.62L267.88 115.61L267.89 115.6L267.91 115.6L267.94 115.6L267.96 115.59L267.98 115.59L268.01 115.59L268.03 115.59L268.06 115.59L268.09 115.6L268.11 115.6L268.14 115.6L268.17 115.61L268.2 115.61L268.23 115.62L268.26 115.62L268.29 115.63L268.35 115.64L268.38 115.65L268.42 115.65L268.45 115.66L268.48 115.66L268.5 115.67L268.53 115.67L268.56 115.67L268.59 115.68L268.62 115.68L268.64 115.68L268.67 115.68L268.69 115.68L268.72 115.68L268.74 115.67L268.76 115.67L268.78 115.66L268.8 115.66L268.81 115.65L268.83 115.64L268.84 115.63L268.85 115.61L268.86 115.6L268.87 115.58L268.88 115.56L268.88 115.54L268.89 115.52L268.89 115.5L268.89 115.48L268.89 115.45L268.89 115.43L268.89 115.4L268.89 115.38L268.89 115.35L268.88 115.32L268.88 115.29L268.88 115.26L268.87 115.23L268.87 115.2L268.86 115.17L268.85 115.14L268.85 115.11L268.84 115.08L268.84 115.05L268.83 115.02L268.83 114.99L268.82 114.96L268.82 114.93L268.81 114.9L268.81 114.87L268.81 114.84L268.81 114.82L268.81 114.79L268.81 114.77L268.81 114.74L268.81 114.72L268.81 114.7L268.82 114.68L268.83 114.66L268.83 114.64L268.84 114.63L269.84 114.63L269.84 113.63L271.84 113.63L271.86 113.62L271.88 113.61L271.89 113.6L271.91 113.6L271.94 113.6L271.96 113.59L271.98 113.59L272.01 113.59L272.03 113.59L272.06 113.59L272.09 113.6L272.11 113.6L272.14 113.6L272.17 113.61L272.2 113.61L272.23 113.62L272.26 113.62L272.29 113.63L272.35 113.64L272.38 113.65L272.42 113.65L272.45 113.66L272.48 113.66L272.5 113.67L272.53 113.67L272.56 113.67L272.59 113.68L272.62 113.68L272.64 113.68L272.67 113.68L272.69 113.68L272.72 113.68L272.74 113.67L272.76 113.67L272.78 113.66L272.8 113.66L272.81 113.65L272.83 113.64L272.84 113.63L272.85 113.61L272.86 113.6L272.87 113.58L272.88 113.56L272.88 113.54L272.89 113.52L272.89 113.5L272.89 113.48L272.89 113.45L272.89 113.43L272.89 113.4L272.89 113.38L272.89 113.35L272.88 113.32L272.88 113.29L272.88 113.26L272.87 113.23L272.87 113.2L272.86 113.17L272.85 113.14L272.85 113.11L272.84 113.08L272.84 113.05L272.83 113.02L272.83 112.99L272.82 112.96L272.82 112.93L272.81 112.9L272.81 112.87L272.81 112.84L272.81 112.82L272.81 112.79L272.81 112.77L272.81 112.74L272.81 112.72L272.81 112.7L272.82 112.68L272.83 112.66L272.83 112.64L272.84 112.63L417.84 112.63L417.85 112.64L417.86 112.66L417.86 112.68L417.87 112.7L417.87 112.72L417.88 112.74L417.88 112.77L417.88 112.79L417.88 112.82L417.87 112.84L417.87 112.87L417.87 112.9L417.87 112.93L417.86 112.96L417.86 112.99L417.85 113.02L417.85 113.05L417.84 113.08L417.83 113.14L417.82 113.17L417.82 113.2L417.81 113.23L417.81 113.26L417.8 113.29L417.8 113.32L417.8 113.35L417.79 113.38L417.79 113.4L417.79 113.43L417.79 113.45L417.79 113.48L417.79 113.5L417.8 113.52L417.8 113.54L417.81 113.56L417.81 113.58L417.82 113.6L417.83 113.61L417.84 113.63L417.86 113.64L417.87 113.65L417.89 113.66L417.91 113.66L417.92 113.67L417.95 113.67L417.97 113.68L417.99 113.68L418.02 113.68L418.04 113.68L418.07 113.68L418.09 113.68L418.12 113.67L418.15 113.67L418.18 113.67L418.21 113.66L418.24 113.66L418.27 113.65L418.3 113.65L418.33 113.64L418.39 113.63L418.42 113.62L418.45 113.62L418.48 113.61L418.51 113.61L418.54 113.6L418.57 113.6L418.6 113.6L418.62 113.59L418.65 113.59L418.68 113.59L418.7 113.59L418.73 113.59L418.75 113.6L418.77 113.6L418.79 113.6L418.81 113.61L418.83 113.62L418.84 113.63L420.84 113.63L420.85 113.64L420.86 113.66L420.86 113.68L420.87 113.7L420.87 113.72L420.88 113.74L420.88 113.77L420.88 113.79L420.88 113.82L420.87 113.84L420.87 113.87L420.87 113.9L420.87 113.93L420.86 113.96L420.86 113.99L420.85 114.02L420.85 114.05L420.84 114.08L420.83 114.14L420.82 114.17L420.82 114.2L420.81 114.23L420.81 114.26L420.8 114.29L420.8 114.32L420.8 114.35L420.79 114.38L420.79 114.4L420.79 114.43L420.79 114.45L420.79 114.48L420.79 114.5L420.8 114.52L420.8 114.54L420.81 114.56L420.81 114.58L420.82 114.6L420.83 114.61L420.84 114.63L420.86 114.64L420.87 114.65L420.89 114.66L420.91 114.66L420.92 114.67L420.95 114.67L420.97 114.68L420.99 114.68L421.02 114.68L421.04 114.68L421.07 114.68L421.09 114.68L421.12 114.67L421.15 114.67L421.18 114.67L421.21 114.66L421.24 114.66L421.27 114.65L421.3 114.65L421.33 114.64L421.39 114.63L421.42 114.62L421.45 114.62L421.48 114.61L421.51 114.61L421.54 114.6L421.57 114.6L421.6 114.6L421.62 114.59L421.65 114.59L421.68 114.59L421.7 114.59L421.73 114.59L421.75 114.6L421.77 114.6L421.79 114.6L421.81 114.61L421.83 114.62L421.84 114.63L421.85 114.64L421.86 114.66L421.86 114.68L421.87 114.7L421.87 114.72L421.88 114.74L421.88 114.77L421.88 114.79L421.88 114.82L421.87 114.84L421.87 114.87L421.87 114.9L421.87 114.93L421.86 114.96L421.86 114.99L421.85 115.02L421.85 115.05L421.84 115.08L421.83 115.14L421.82 115.17L421.82 115.2L421.81 115.23L421.81 115.26L421.8 115.29L421.8 115.32L421.8 115.35L421.79 115.38L421.79 115.4L421.79 115.43L421.79 115.45L421.79 115.48L421.79 115.5L421.8 115.52L421.8 115.54L421.81 115.56L421.81 115.58L421.82 115.6L421.83 115.61L421.84 115.63L421.86 115.64L421.87 115.65L421.89 115.66L421.91 115.66L421.92 115.67L421.95 115.67L421.97 115.68L421.99 115.68L422.02 115.68L422.04 115.68L422.07 115.68L422.09 115.68L422.12 115.67L422.15 115.67L422.18 115.67L422.21 115.66L422.24 115.66L422.27 115.65L422.3 115.65L422.33 115.64L422.39 115.63L422.42 115.62L422.45 115.62L422.48 115.61L422.51 115.61L422.54 115.6L422.57 115.6L422.6 115.6L422.62 115.59L422.65 115.59L422.68 115.59L422.7 115.59L422.73 115.59L422.75 115.6ZM286.84 274.63L403.84 274.63L403.84 133.63L286.84 133.63L286.84 274.63Z" id="b5tan9Idnl"></path><path d="M418.84 112.63C418.84 112.96 418.84 113.29 418.84 113.63C418.64 113.49 418.01 113.79 417.84 113.63C417.68 113.46 417.98 112.83 417.84 112.63C418.18 112.63 418.51 112.63 418.84 112.63Z" id="a1lVcf1fx"></path><path d="M418.84 112.63C419.04 112.76 419.68 112.46 419.84 112.63C420.01 112.79 419.71 113.43 419.84 113.63C419.51 113.63 419.18 113.63 418.84 113.63C418.84 113.29 418.84 112.96 418.84 112.63Z" id="a1iOdzheGs"></path><path d="M268.84 113.63C269.01 113.46 269.64 113.76 269.84 113.63C269.84 113.96 269.84 114.29 269.84 114.63C269.51 114.63 269.18 114.63 268.84 114.63C268.98 114.43 268.68 113.79 268.84 113.63Z" id="d1qXoPkUfG"></path><path d="M421.84 113.63C422.01 113.79 421.71 114.43 421.84 114.63C421.64 114.49 421.01 114.79 420.84 114.63C420.68 114.46 420.98 113.83 420.84 113.63C421.04 113.76 421.68 113.46 421.84 113.63Z" id="agZvJOI8t"></path><path d="M267.84 114.63C268.01 114.46 268.64 114.76 268.84 114.63C268.71 114.83 269.01 115.46 268.84 115.63C268.68 115.79 268.04 115.49 267.84 115.63C267.98 115.43 267.68 114.79 267.84 114.63Z" id="a3MD8HBHN"></path><path d="M422.84 114.63C423.01 114.79 422.71 115.43 422.84 115.63C422.64 115.49 422.01 115.79 421.84 115.63C421.68 115.46 421.98 114.83 421.84 114.63C422.04 114.76 422.68 114.46 422.84 114.63Z" id="c1O6yXCXGE"></path><path d="M266.84 115.63C267.18 115.63 267.51 115.63 267.84 115.63C267.71 115.83 268.01 116.46 267.84 116.63C267.68 116.79 267.04 116.49 266.84 116.63C266.84 116.29 266.84 115.96 266.84 115.63Z" id="a67IBBgQb"></path><path d="M423.84 115.63C424.01 115.79 423.71 116.43 423.84 116.63C423.51 116.63 423.18 116.63 422.84 116.63C422.84 116.29 422.84 115.96 422.84 115.63C423.04 115.76 423.68 115.46 423.84 115.63Z" id="abJBLwPxI"></path><path d="M265.84 117.63C266.01 117.46 266.64 117.76 266.84 117.63C266.84 117.96 266.84 118.29 266.84 118.63C266.51 118.63 266.18 118.63 265.84 118.63C265.98 118.43 265.68 117.79 265.84 117.63Z" id="dQHhUwf3o"></path><path d="M423.84 117.63C424.18 117.63 424.51 117.63 424.84 117.63C424.84 117.96 424.84 118.29 424.84 118.63C424.51 118.63 424.18 118.63 423.84 118.63C423.84 118.29 423.84 117.96 423.84 117.63Z" id="c6z0C57xb"></path><path d="M265.84 118.63C266.18 118.63 266.51 118.63 266.84 118.63C266.71 118.83 267.01 119.46 266.84 119.63C266.68 119.79 266.04 119.49 265.84 119.63C265.84 119.29 265.84 118.96 265.84 118.63Z" id="a4y42LjEQ"></path><path d="M424.84 118.63C424.84 118.96 424.84 119.29 424.84 119.63C424.51 119.63 424.18 119.63 423.84 119.63C423.84 119.29 423.84 118.96 423.84 118.63C424.18 118.63 424.51 118.63 424.84 118.63Z" id="j983GnOE5"></path><path d="M157.84 252.63C158.01 252.46 158.64 252.76 158.84 252.63C158.71 252.83 159.01 253.46 158.84 253.63C158.68 253.79 158.04 253.49 157.84 253.63C157.98 253.43 157.68 252.79 157.84 252.63Z" id="a3QOY0rUl3"></path><path d="M190.84 252.63C196.18 252.63 201.51 252.63 206.84 252.63C209.51 252.63 212.18 252.63 214.84 252.63C217.84 252.63 220.84 252.63 223.84 252.63C223.84 252.96 223.84 253.29 223.84 253.63C224.04 253.76 224.68 253.46 224.84 253.63C225.01 253.79 224.71 254.43 224.84 254.63C225.18 254.63 225.51 254.63 225.84 254.63C225.84 255.29 225.84 255.96 225.84 256.63C225.84 256.96 225.84 257.29 225.84 257.63C225.84 257.96 225.84 258.29 225.84 258.63C226.18 258.63 226.51 258.63 226.84 258.63C226.84 258.96 226.84 259.29 226.84 259.63C226.84 259.96 226.84 260.29 226.84 260.63C226.98 260.83 226.68 261.46 226.84 261.63C227.01 261.79 227.64 261.49 227.84 261.63C227.84 262.29 227.84 262.96 227.84 263.63C227.84 263.96 227.84 264.29 227.84 264.63C227.84 264.96 227.84 265.29 227.84 265.63C228.18 265.63 228.51 265.63 228.84 265.63C228.84 266.29 228.84 266.96 228.84 267.63C228.84 267.96 228.84 268.29 228.84 268.63C228.84 268.96 228.84 269.29 228.84 269.63C229.18 269.63 229.51 269.63 229.84 269.63C229.84 269.96 229.84 270.29 229.84 270.63C229.84 270.96 229.84 271.29 229.84 271.63C229.98 271.83 229.68 272.46 229.84 272.63C230.01 272.79 230.64 272.49 230.84 272.63C230.84 273.29 230.84 273.96 230.84 274.63C230.84 274.96 230.84 275.29 230.84 275.63C230.84 275.96 230.84 276.29 230.84 276.63C231.18 276.63 231.51 276.63 231.84 276.63C231.84 276.96 231.84 277.29 231.84 277.63C231.84 277.96 231.84 278.29 231.84 278.63C231.98 278.83 231.68 279.46 231.84 279.63C232.01 279.79 232.64 279.49 232.84 279.63C232.84 279.96 232.84 280.29 232.84 280.63C232.97 280.88 232.69 281.4 232.84 281.63C232.95 281.79 233.7 281.49 233.84 281.63C234.01 281.79 233.71 282.43 233.84 282.63C234.18 282.63 234.51 282.63 234.84 282.63C234.84 283.29 234.84 283.96 234.84 284.63C234.84 284.96 234.84 285.29 234.84 285.63C234.84 285.96 234.84 286.29 234.84 286.63C235.18 286.63 235.51 286.63 235.84 286.63C235.84 287.29 235.84 287.96 235.84 288.63C235.84 288.96 235.84 289.29 235.84 289.63C235.84 289.96 235.84 290.29 235.84 290.63C235.64 290.76 235.01 290.46 234.84 290.63C234.68 290.79 234.98 291.43 234.84 291.63C234.84 291.96 234.84 292.29 234.84 292.63C234.64 292.76 234.01 292.46 233.84 292.63C233.68 292.79 233.98 293.43 233.84 293.63C233.51 293.63 233.18 293.63 232.84 293.63C232.84 293.96 232.84 294.29 232.84 294.63C232.18 294.63 231.51 294.63 230.84 294.63C230.51 294.63 230.18 294.63 229.84 294.63C229.51 294.63 229.18 294.63 228.84 294.63C228.64 294.76 228.01 294.46 227.84 294.63C227.68 294.79 227.98 295.43 227.84 295.63C225.84 295.63 223.84 295.63 221.84 295.63C221.71 295.43 222.01 294.79 221.84 294.63C221.75 294.54 220.98 294.63 220.84 294.63C220.51 294.63 220.18 294.63 219.84 294.63C218.51 294.63 217.18 294.63 215.84 294.63C210.18 294.63 204.51 294.63 198.84 294.63C195.84 294.63 192.84 294.63 189.84 294.63C187.18 294.63 184.51 294.63 181.84 294.63C178.84 294.63 175.84 294.63 172.84 294.63C170.18 294.63 167.51 294.63 164.84 294.63C159.51 294.63 154.18 294.63 148.84 294.63C148.51 294.63 148.18 294.63 147.84 294.63C147.84 294.29 147.84 293.96 147.84 293.63C147.71 293.43 148.01 292.79 147.84 292.63C147.68 292.46 147.04 292.76 146.84 292.63C146.84 292.29 146.84 291.96 146.84 291.63C146.84 291.29 146.84 290.96 146.84 290.63C146.84 289.96 146.84 289.29 146.84 288.63C147.04 288.49 147.68 288.79 147.84 288.63C148.01 288.46 147.71 287.83 147.84 287.63C147.84 287.29 147.84 286.96 147.84 286.63C147.84 285.63 147.84 284.63 147.84 283.63C148.04 283.49 148.68 283.79 148.84 283.63C149.01 283.46 148.71 282.83 148.84 282.63C148.98 282.43 148.68 281.79 148.84 281.63C149.01 281.46 149.64 281.76 149.84 281.63C149.84 281.29 149.84 280.96 149.84 280.63C149.84 279.63 149.84 278.63 149.84 277.63C150.04 277.49 150.68 277.79 150.84 277.63C151.01 277.46 150.71 276.83 150.84 276.63C150.84 275.63 150.84 274.63 150.84 273.63C151.18 273.63 151.51 273.63 151.84 273.63C152.04 273.49 152.68 273.79 152.84 273.63C153.01 273.46 152.71 272.83 152.84 272.63C152.84 271.63 152.84 270.63 152.84 269.63C153.04 269.49 153.68 269.79 153.84 269.63C154.01 269.46 153.71 268.83 153.84 268.63C153.84 267.63 153.84 266.63 153.84 265.63C154.04 265.49 154.68 265.79 154.84 265.63C154.96 265.51 154.8 264.81 154.84 264.63C154.91 264.34 154.84 263.92 154.84 263.63C154.84 262.96 154.84 262.29 154.84 261.63C155.04 261.49 155.68 261.79 155.84 261.63C156.01 261.46 155.71 260.83 155.84 260.63C155.84 260.29 155.84 259.96 155.84 259.63C155.84 259.29 155.84 258.96 155.84 258.63C156.04 258.49 156.68 258.79 156.84 258.63C157.01 258.46 156.71 257.83 156.84 257.63C156.84 257.29 156.84 256.96 156.84 256.63C157.04 256.49 157.68 256.79 157.84 256.63C158.01 256.46 157.71 255.83 157.84 255.63C157.84 255.29 157.84 254.96 157.84 254.63C157.84 254.29 157.84 253.96 157.84 253.63C158.04 253.49 158.68 253.79 158.84 253.63C159.01 253.46 158.71 252.83 158.84 252.63C169.51 252.63 180.18 252.63 190.84 252.63Z" id="c3hlUzBSdp"></path><path d="M156.84 254.63C157.01 254.46 157.64 254.76 157.84 254.63C157.84 254.96 157.84 255.29 157.84 255.63C157.51 255.63 157.18 255.63 156.84 255.63C156.98 255.43 156.68 254.79 156.84 254.63Z" id="eK2VezpJ8"></path><path d="M156.84 255.63C157.18 255.63 157.51 255.63 157.84 255.63C157.71 255.83 158.01 256.46 157.84 256.63C157.68 256.79 157.04 256.49 156.84 256.63C156.84 256.29 156.84 255.96 156.84 255.63Z" id="c916lCApF"></path><path d="M225.84 256.63C226.04 256.76 226.68 256.46 226.84 256.63C227.01 256.79 226.71 257.43 226.84 257.63C226.51 257.63 226.18 257.63 225.84 257.63C225.84 257.29 225.84 256.96 225.84 256.63Z" id="a1EFkzBQm2"></path><path d="M155.84 257.63C156.01 257.46 156.64 257.76 156.84 257.63C156.71 257.83 157.01 258.46 156.84 258.63C156.68 258.79 156.04 258.49 155.84 258.63C155.98 258.43 155.68 257.79 155.84 257.63Z" id="d4DzQNp9n"></path><path d="M226.84 257.63C226.84 257.96 226.84 258.29 226.84 258.63C226.51 258.63 226.18 258.63 225.84 258.63C225.84 258.29 225.84 257.96 225.84 257.63C226.18 257.63 226.51 257.63 226.84 257.63Z" id="g10KtaVoXq"></path><path d="M154.84 259.63C155.01 259.46 155.64 259.76 155.84 259.63C155.84 259.96 155.84 260.29 155.84 260.63C155.51 260.63 155.18 260.63 154.84 260.63C154.98 260.43 154.68 259.79 154.84 259.63Z" id="bl98JxBsb"></path><path d="M226.84 259.63C227.18 259.63 227.51 259.63 227.84 259.63C227.84 259.96 227.84 260.29 227.84 260.63C227.51 260.63 227.18 260.63 226.84 260.63C226.84 260.29 226.84 259.96 226.84 259.63Z" id="d4MhPV4UWv"></path><path d="M154.84 260.63C155.18 260.63 155.51 260.63 155.84 260.63C155.71 260.83 156.01 261.46 155.84 261.63C155.68 261.79 155.04 261.49 154.84 261.63C154.84 261.29 154.84 260.96 154.84 260.63Z" id="bhYuIFUV2"></path><path d="M227.84 260.63C227.84 260.96 227.84 261.29 227.84 261.63C227.64 261.49 227.01 261.79 226.84 261.63C226.68 261.46 226.98 260.83 226.84 260.63C227.18 260.63 227.51 260.63 227.84 260.63Z" id="cKmPlTrn"></path><path d="M227.84 263.63C228.18 263.63 228.51 263.63 228.84 263.63C228.84 263.96 228.84 264.29 228.84 264.63C228.51 264.63 228.18 264.63 227.84 264.63C227.84 264.29 227.84 263.96 227.84 263.63Z" id="bJIKptsAh"></path><path d="M228.84 264.63C228.84 264.96 228.84 265.29 228.84 265.63C228.51 265.63 228.18 265.63 227.84 265.63C227.84 265.29 227.84 264.96 227.84 264.63C228.18 264.63 228.51 264.63 228.84 264.63Z" id="b13VTC0iQi"></path><path d="M153.84 268.63C153.51 268.63 153.18 268.63 152.84 268.63C152.84 267.63 152.84 266.63 152.84 265.63C153.18 265.63 153.51 265.63 153.84 265.63C153.84 266.63 153.84 267.63 153.84 268.63Z" id="aoEsJZZYw"></path><path d="M228.84 267.63C229.04 267.76 229.68 267.46 229.84 267.63C230.01 267.79 229.71 268.43 229.84 268.63C229.51 268.63 229.18 268.63 228.84 268.63C228.84 268.29 228.84 267.96 228.84 267.63Z" id="e3oIbfRQzD"></path><path d="M152.84 268.63C153.18 268.63 153.51 268.63 153.84 268.63C153.71 268.83 154.01 269.46 153.84 269.63C153.68 269.79 153.04 269.49 152.84 269.63C152.84 269.29 152.84 268.96 152.84 268.63Z" id="e2usq2y1rS"></path><path d="M229.84 268.63C229.84 268.96 229.84 269.29 229.84 269.63C229.51 269.63 229.18 269.63 228.84 269.63C228.84 269.29 228.84 268.96 228.84 268.63C229.18 268.63 229.51 268.63 229.84 268.63Z" id="a9z49aqJu"></path><path d="M152.84 272.63C152.51 272.63 152.18 272.63 151.84 272.63C151.84 271.63 151.84 270.63 151.84 269.63C152.18 269.63 152.51 269.63 152.84 269.63C152.84 270.63 152.84 271.63 152.84 272.63Z" id="c1QZ1fhZL5"></path><path d="M229.84 270.63C230.18 270.63 230.51 270.63 230.84 270.63C230.84 270.96 230.84 271.29 230.84 271.63C230.51 271.63 230.18 271.63 229.84 271.63C229.84 271.29 229.84 270.96 229.84 270.63Z" id="c2a2qDunpE"></path><path d="M230.84 271.63C230.84 271.96 230.84 272.29 230.84 272.63C230.64 272.49 230.01 272.79 229.84 272.63C229.68 272.46 229.98 271.83 229.84 271.63C230.18 271.63 230.51 271.63 230.84 271.63Z" id="aHaIO7dr1"></path><path d="M150.84 272.63C151.01 272.46 151.64 272.76 151.84 272.63C151.84 272.96 151.84 273.29 151.84 273.63C151.51 273.63 151.18 273.63 150.84 273.63C150.98 273.43 150.68 272.79 150.84 272.63Z" id="h22fYsgGj4"></path><path d="M151.84 272.63C152.18 272.63 152.51 272.63 152.84 272.63C152.71 272.83 153.01 273.46 152.84 273.63C152.68 273.79 152.04 273.49 151.84 273.63C151.84 273.29 151.84 272.96 151.84 272.63Z" id="d1NHqd9Pa"></path><path d="M230.84 274.63C231.04 274.76 231.68 274.46 231.84 274.63C232.01 274.79 231.71 275.43 231.84 275.63C231.51 275.63 231.18 275.63 230.84 275.63C230.84 275.29 230.84 274.96 230.84 274.63Z" id="d3q3YZXuH"></path><path d="M231.84 275.63C231.84 275.96 231.84 276.29 231.84 276.63C231.51 276.63 231.18 276.63 230.84 276.63C230.84 276.29 230.84 275.96 230.84 275.63C231.18 275.63 231.51 275.63 231.84 275.63Z" id="gy0itYsZe"></path><path d="M149.84 276.63C150.01 276.46 150.64 276.76 150.84 276.63C150.71 276.83 151.01 277.46 150.84 277.63C150.68 277.79 150.04 277.49 149.84 277.63C149.98 277.43 149.68 276.79 149.84 276.63Z" id="b282NaXFo"></path><path d="M231.84 277.63C232.04 277.76 232.68 277.46 232.84 277.63C233.01 277.79 232.71 278.43 232.84 278.63C232.51 278.63 232.18 278.63 231.84 278.63C231.84 278.29 231.84 277.96 231.84 277.63Z" id="dOqjsMRic"></path><path d="M232.84 278.63C232.84 278.96 232.84 279.29 232.84 279.63C232.64 279.49 232.01 279.79 231.84 279.63C231.68 279.46 231.98 278.83 231.84 278.63C232.18 278.63 232.51 278.63 232.84 278.63Z" id="j4A7DiDwUR"></path><path d="M147.84 282.63C148.18 282.63 148.51 282.63 148.84 282.63C148.71 282.83 149.01 283.46 148.84 283.63C148.68 283.79 148.04 283.49 147.84 283.63C147.84 283.29 147.84 282.96 147.84 282.63Z" id="c3srkR3Jkj"></path><path d="M234.84 284.63C235.18 284.63 235.51 284.63 235.84 284.63C235.84 284.96 235.84 285.29 235.84 285.63C235.51 285.63 235.18 285.63 234.84 285.63C234.84 285.29 234.84 284.96 234.84 284.63Z" id="f3HX9nUlS"></path><path d="M235.84 285.63C235.84 285.96 235.84 286.29 235.84 286.63C235.51 286.63 235.18 286.63 234.84 286.63C234.84 286.29 234.84 285.96 234.84 285.63C235.18 285.63 235.51 285.63 235.84 285.63Z" id="b6aGEUbvz"></path><path d="M146.84 286.63C147.01 286.46 147.64 286.76 147.84 286.63C147.84 286.96 147.84 287.29 147.84 287.63C147.51 287.63 147.18 287.63 146.84 287.63C146.98 287.43 146.68 286.79 146.84 286.63Z" id="a1afsbWWFT"></path><path d="M146.84 287.63C147.18 287.63 147.51 287.63 147.84 287.63C147.71 287.83 148.01 288.46 147.84 288.63C147.68 288.79 147.04 288.49 146.84 288.63C146.84 288.29 146.84 287.96 146.84 287.63Z" id="a1eZfCb7yR"></path><path d="M146.84 290.63C146.51 290.63 146.18 290.63 145.84 290.63C145.84 290.29 145.84 289.96 145.84 289.63C145.84 289.49 145.75 288.72 145.84 288.63C146.01 288.46 146.64 288.76 146.84 288.63C146.84 289.29 146.84 289.96 146.84 290.63Z" id="an5HM8zgj"></path><path d="M235.84 288.63C236.04 288.76 236.68 288.46 236.84 288.63C237.01 288.79 236.71 289.43 236.84 289.63C236.51 289.63 236.18 289.63 235.84 289.63C235.84 289.29 235.84 288.96 235.84 288.63Z" id="fWuwL5ZlR"></path><path d="M265.84 288.63C266.04 288.76 266.68 288.46 266.84 288.63C267.01 288.79 266.71 289.43 266.84 289.63C266.51 289.63 266.18 289.63 265.84 289.63C265.84 289.29 265.84 288.96 265.84 288.63Z" id="a4WEfnSXj"></path><path d="M423.84 288.63C424.01 288.46 424.64 288.76 424.84 288.63C424.84 288.96 424.84 289.29 424.84 289.63C424.51 289.63 424.18 289.63 423.84 289.63C423.98 289.43 423.68 288.79 423.84 288.63Z" id="a6TVhZVQY9"></path><path d="M235.84 289.63C236.18 289.63 236.51 289.63 236.84 289.63C236.84 289.96 236.84 290.29 236.84 290.63C236.51 290.63 236.18 290.63 235.84 290.63C235.84 290.29 235.84 289.96 235.84 289.63Z" id="e3UDrF13R"></path><path d="M266.84 289.63C266.84 289.96 266.84 290.29 266.84 290.63C266.64 290.49 266.01 290.79 265.84 290.63C265.68 290.46 265.98 289.83 265.84 289.63C266.18 289.63 266.51 289.63 266.84 289.63Z" id="addsk5y58"></path><path d="M423.84 289.63C424.18 289.63 424.51 289.63 424.84 289.63C424.84 289.96 424.84 290.29 424.84 290.63C424.51 290.63 424.18 290.63 423.84 290.63C423.84 290.29 423.84 289.96 423.84 289.63Z" id="d5j3IX8ds"></path><path d="M146.84 290.63C146.84 290.96 146.84 291.29 146.84 291.63C146.64 291.49 146.01 291.79 145.84 291.63C145.68 291.46 145.98 290.83 145.84 290.63C146.18 290.63 146.51 290.63 146.84 290.63Z" id="a76p0JhvP"></path><path d="M234.84 290.63C235.01 290.46 235.64 290.76 235.84 290.63C235.84 290.96 235.84 291.29 235.84 291.63C235.51 291.63 235.18 291.63 234.84 291.63C234.98 291.43 234.68 290.79 234.84 290.63Z" id="bH5PwSIIp"></path><path d="M235.84 290.63C236.18 290.63 236.51 290.63 236.84 290.63C236.84 290.96 236.84 291.29 236.84 291.63C236.51 291.63 236.18 291.63 235.84 291.63C235.84 291.29 235.84 290.96 235.84 290.63Z" id="a3UZcdcKnY"></path><path d="M12.84 291.63C13.01 291.79 12.71 292.43 12.84 292.63C12.51 292.63 12.18 292.63 11.84 292.63C11.84 292.29 11.84 291.96 11.84 291.63C12.04 291.76 12.68 291.46 12.84 291.63Z" id="a1RZ0fjeK7"></path><path d="M234.84 291.63C235.18 291.63 235.51 291.63 235.84 291.63C235.71 291.83 236.01 292.46 235.84 292.63C235.68 292.79 235.04 292.49 234.84 292.63C234.84 292.29 234.84 291.96 234.84 291.63Z" id="b2BPGSYTCR"></path><path d="M267.84 291.63C267.84 291.96 267.84 292.29 267.84 292.63C267.64 292.49 267.01 292.79 266.84 292.63C266.68 292.46 266.98 291.83 266.84 291.63C267.18 291.63 267.51 291.63 267.84 291.63Z" id="a1BULlbNb9"></path><path d="M422.84 291.63C423.01 291.46 423.64 291.76 423.84 291.63C423.71 291.83 424.01 292.46 423.84 292.63C423.68 292.79 423.04 292.49 422.84 292.63C422.98 292.43 422.68 291.79 422.84 291.63Z" id="d6Y31xLP9a"></path><path d="M147.84 292.63C148.01 292.79 147.71 293.43 147.84 293.63C147.64 293.49 147.01 293.79 146.84 293.63C146.68 293.46 146.98 292.83 146.84 292.63C147.04 292.76 147.68 292.46 147.84 292.63Z" id="b2xpJHFBqp"></path><path d="M233.84 292.63C234.01 292.46 234.64 292.76 234.84 292.63C234.71 292.83 235.01 293.46 234.84 293.63C234.68 293.79 234.04 293.49 233.84 293.63C233.98 293.43 233.68 292.79 233.84 292.63Z" id="e1Jv3OVYZT"></path><path d="M268.84 292.63C269.01 292.79 268.71 293.43 268.84 293.63C268.64 293.49 268.01 293.79 267.84 293.63C267.68 293.46 267.98 292.83 267.84 292.63C268.04 292.76 268.68 292.46 268.84 292.63Z" id="b1HPLrsNcA"></path><path d="M421.84 292.63C422.01 292.46 422.64 292.76 422.84 292.63C422.71 292.83 423.01 293.46 422.84 293.63C422.68 293.79 422.04 293.49 421.84 293.63C421.98 293.43 421.68 292.79 421.84 292.63Z" id="a4pjjqZ7h"></path><path d="M232.84 293.63C233.18 293.63 233.51 293.63 233.84 293.63C233.71 293.83 234.01 294.46 233.84 294.63C233.68 294.79 233.04 294.49 232.84 294.63C232.84 294.29 232.84 293.96 232.84 293.63Z" id="bmem3d1T"></path><path d="M269.84 293.63C270.01 293.79 269.71 294.43 269.84 294.63C269.51 294.63 269.18 294.63 268.84 294.63C268.84 294.29 268.84 293.96 268.84 293.63C269.04 293.76 269.68 293.46 269.84 293.63Z" id="c1TYxMn5Z"></path><path d="M420.84 293.63C421.18 293.63 421.51 293.63 421.84 293.63C421.71 293.83 422.01 294.46 421.84 294.63C421.68 294.79 421.04 294.49 420.84 294.63C420.84 294.29 420.84 293.96 420.84 293.63Z" id="dfZHZO5rc"></path><path d="M147.84 294.63C148.18 294.63 148.51 294.63 148.84 294.63C148.84 294.96 148.84 295.29 148.84 295.63C148.51 295.63 148.18 295.63 147.84 295.63C147.84 295.29 147.84 294.96 147.84 294.63Z" id="fouP3yG6d"></path><path d="M148.84 294.63C154.18 294.63 159.51 294.63 164.84 294.63C167.51 294.63 170.18 294.63 172.84 294.63C175.84 294.63 178.84 294.63 181.84 294.63C184.51 294.63 187.18 294.63 189.84 294.63C192.84 294.63 195.84 294.63 198.84 294.63C204.51 294.63 210.18 294.63 215.84 294.63C215.84 294.96 215.84 295.29 215.84 295.63C210.18 295.63 204.51 295.63 198.84 295.63C195.84 295.63 192.84 295.63 189.84 295.63C187.18 295.63 184.51 295.63 181.84 295.63C178.84 295.63 175.84 295.63 172.84 295.63C170.18 295.63 167.51 295.63 164.84 295.63C159.51 295.63 154.18 295.63 148.84 295.63C148.84 295.29 148.84 294.96 148.84 294.63Z" id="a2giUitzSs"></path><path d="M215.84 294.63C217.18 294.63 218.51 294.63 219.84 294.63C219.84 294.96 219.84 295.29 219.84 295.63C218.51 295.63 217.18 295.63 215.84 295.63C215.84 295.29 215.84 294.96 215.84 294.63Z" id="c3jZqYVcGy"></path><path d="M219.84 294.63C220.18 294.63 220.51 294.63 220.84 294.63C220.98 294.63 221.75 294.54 221.84 294.63C222.01 294.79 221.71 295.43 221.84 295.63C221.18 295.63 220.51 295.63 219.84 295.63C219.84 295.29 219.84 294.96 219.84 294.63Z" id="aG8YwLB3F"></path><path d="M227.84 294.63C228.01 294.46 228.64 294.76 228.84 294.63C228.84 294.96 228.84 295.29 228.84 295.63C228.51 295.63 228.18 295.63 227.84 295.63C227.98 295.43 227.68 294.79 227.84 294.63Z" id="h52P1iB7ZX"></path><path d="M228.84 294.63C229.18 294.63 229.51 294.63 229.84 294.63C229.84 294.96 229.84 295.29 229.84 295.63C229.51 295.63 229.18 295.63 228.84 295.63C228.84 295.29 228.84 294.96 228.84 294.63Z" id="d2H92WrBQK"></path><path d="M229.84 294.63C230.18 294.63 230.51 294.63 230.84 294.63C230.84 294.96 230.84 295.29 230.84 295.63C230.51 295.63 230.18 295.63 229.84 295.63C229.84 295.29 229.84 294.96 229.84 294.63Z" id="f12ZgwigCG"></path><path d="M270.84 294.63C271.18 294.63 271.51 294.63 271.84 294.63C271.84 294.96 271.84 295.29 271.84 295.63C271.51 295.63 271.18 295.63 270.84 295.63C270.84 295.29 270.84 294.96 270.84 294.63Z" id="b8hTdQTkR"></path><path d="M271.84 294.63C272.04 294.76 272.68 294.46 272.84 294.63C273.01 294.79 272.71 295.43 272.84 295.63C272.51 295.63 272.18 295.63 271.84 295.63C271.84 295.29 271.84 294.96 271.84 294.63Z" id="a7lLkGvTVE"></path><path d="M417.84 294.63C418.01 294.46 418.64 294.76 418.84 294.63C418.84 294.96 418.84 295.29 418.84 295.63C418.51 295.63 418.18 295.63 417.84 295.63C417.98 295.43 417.68 294.79 417.84 294.63Z" id="bCDXXFOPo"></path><path d="M418.84 294.63C419.18 294.63 419.51 294.63 419.84 294.63C419.84 294.96 419.84 295.29 419.84 295.63C419.51 295.63 419.18 295.63 418.84 295.63C418.84 295.29 418.84 294.96 418.84 294.63Z" id="a3w15r3K5r"></path><path d="M233.84 280.63C233.98 280.83 233.68 281.46 233.84 281.63C233.98 281.77 234.74 281.47 234.84 281.63C235 281.86 234.72 282.38 234.84 282.63C234.51 282.63 234.18 282.63 233.84 282.63C233.71 282.43 234.01 281.79 233.84 281.63C233.7 281.49 232.95 281.79 232.84 281.63C232.69 281.4 232.97 280.88 232.84 280.63C233.18 280.63 233.51 280.63 233.84 280.63Z" id="bHVntDLHC"></path><path d="M224.84 252.63C224.98 252.83 224.68 253.46 224.84 253.63C224.98 253.77 225.74 253.47 225.84 253.63C226 253.86 225.72 254.38 225.84 254.63C225.51 254.63 225.18 254.63 224.84 254.63C224.71 254.43 225.01 253.79 224.84 253.63C224.68 253.46 224.04 253.76 223.84 253.63C223.84 253.29 223.84 252.96 223.84 252.63C224.18 252.63 224.51 252.63 224.84 252.63Z" id="a1monnDHJQ"></path><path d="M147.84 281.63C148.04 281.49 148.68 281.79 148.84 281.63C148.98 281.49 148.68 280.73 148.84 280.63C149.07 280.47 149.59 280.75 149.84 280.63C149.84 280.96 149.84 281.29 149.84 281.63C149.64 281.76 149.01 281.46 148.84 281.63C148.68 281.79 148.98 282.43 148.84 282.63C148.51 282.63 148.18 282.63 147.84 282.63C147.84 282.29 147.84 281.96 147.84 281.63Z" id="a9a09XXjeX"></path><path d="M353.78 22.52C353.78 22.21 353.78 19.74 353.78 19.44C353.58 19.3 352.95 19.61 352.78 19.44C352.62 19.27 352.92 18.61 352.78 18.41C352.78 18.27 352.78 17.59 352.78 16.35L351.78 16.35C351.78 15.74 351.78 15.39 351.78 15.32C351.58 15.19 350.95 15.5 350.78 15.32C350.62 15.15 350.92 14.5 350.78 14.3C350.58 14.16 349.95 14.47 349.78 14.3C349.62 14.12 349.92 13.47 349.78 13.27C349.65 13.06 349.95 12.41 349.78 12.24C349.62 12.07 348.98 12.38 348.78 12.24C348.72 12.24 348.38 12.24 347.78 12.24C347.78 11.62 347.78 11.28 347.78 11.21C347.58 11.07 346.95 11.38 346.78 11.21C346.62 11.04 346.92 10.39 346.78 10.18C346.68 10.18 345.88 10.18 345.78 10.18C345.58 10.05 344.95 10.35 344.78 10.18C344.62 10.01 344.92 9.36 344.78 9.15C344.48 9.15 342.08 9.15 341.78 9.15C341.58 9.02 340.95 9.33 340.78 9.15C340.62 8.98 340.92 8.33 340.78 8.13C310.98 8.13 72.58 8.13 42.78 8.13C42.77 8.14 42.77 8.17 42.76 8.19C42.75 8.19 42.74 8.19 42.72 8.19C42.73 8.19 42.78 8.13 42.78 8.13C35.04 8.13 28.78 15.02 28.78 23.55C28.79 23.54 28.81 23.52 28.81 23.52C28.81 23.52 28.81 23.53 28.82 23.53C28.81 23.54 28.81 23.54 28.81 23.55C28.81 23.55 28.8 23.55 28.78 23.55L28.78 198.33L49.78 198.33L49.78 29.72L333.78 29.72L333.78 112.99L354.78 112.99C354.78 59.33 354.78 29.51 354.78 23.55C354.58 23.41 353.95 23.72 353.78 23.55C353.62 23.38 353.92 22.73 353.78 22.52Z" id="j2DiY05Og0"></path><path d="M64.84 195.63L65.09 195.63L65.33 195.65L65.58 195.67L65.81 195.71L66.05 195.75L66.28 195.8L66.51 195.86L66.74 195.93L66.96 196.01L67.18 196.1L67.39 196.19L67.6 196.3L67.8 196.41L68 196.53L68.2 196.65L68.39 196.78L68.57 196.92L68.75 197.07L68.92 197.22L69.08 197.38L69.24 197.55L69.4 197.72L69.54 197.9L69.68 198.08L69.82 198.27L69.94 198.47L70.06 198.66L70.17 198.87L70.27 199.08L70.37 199.29L70.46 199.51L70.54 199.73L70.61 199.96L70.67 200.18L70.72 200.42L70.76 200.65L70.8 200.89L70.82 201.13L70.84 201.38L70.84 201.63L70.84 225.1L70.85 225.1L70.85 225.1L70.86 225.1L70.88 225.09L70.89 225.09L70.89 225.09L70.89 225.06L265.84 225.06L265.84 247.19L70.89 247.19L70.89 247.14L70.89 247.14L70.86 247.14L70.85 247.15L70.84 247.15L70.84 289.18L64.92 295.55L64.84 295.63L64.84 295.56L64.82 295.56L64.79 295.56L64.77 295.57L64.74 295.57L64.72 295.57L64.69 295.58L64.67 295.58L64.64 295.58L64.62 295.58L64.6 295.59L64.57 295.59L64.55 295.59L64.52 295.59L64.5 295.6L64.47 295.6L64.45 295.6L64.42 295.6L64.4 295.6L64.37 295.61L64.35 295.61L64.32 295.61L64.3 295.61L64.27 295.61L64.25 295.61L64.22 295.62L64.2 295.62L64.17 295.62L64.15 295.62L64.12 295.62L64.1 295.62L64.07 295.62L64.05 295.62L64.02 295.62L63.99 295.63L63.97 295.63L63.94 295.63L63.92 295.63L63.89 295.63L63.87 295.63L63.84 295.63L18.02 295.63L18.02 295.68L17.75 295.67L17.48 295.66L17.22 295.64L16.96 295.61L16.7 295.57L16.44 295.53L16.19 295.47L15.94 295.41L15.7 295.34L15.46 295.26L15.22 295.18L14.99 295.09L14.76 294.99L14.54 294.88L14.33 294.77L14.11 294.65L13.91 294.53L13.71 294.4L13.51 294.26L13.32 294.12L13.14 293.97L12.97 293.82L12.8 293.66L12.63 293.49L12.48 293.32L12.33 293.15L12.19 292.97L12.05 292.79L11.92 292.6L11.8 292.41L11.69 292.21L11.59 292.01L11.5 291.81L11.41 291.6L11.33 291.39L11.26 291.17L11.2 290.96L11.15 290.74L11.11 290.51L11.08 290.29L11.07 290.28L11.07 290.27L11.06 290.25L11.06 290.24L11.05 290.23L11.05 290.22L11.04 290.21L11.03 290.2L11.03 290.18L11.02 290.17L11.02 290.16L11.02 290.15L11.01 290.14L11.01 290.13L11 290.11L11 290.1L10.99 290.09L10.99 290.08L10.99 290.07L10.98 290.05L10.98 290.04L10.98 290.03L10.97 290.02L10.97 290L10.97 289.99L10.96 289.98L10.96 289.97L10.96 289.95L10.96 289.94L10.95 289.93L10.95 289.92L10.95 289.9L10.95 289.89L10.95 289.88L10.95 289.87L10.95 289.85L10.95 289.84L10.94 289.83L10.94 289.81L10.94 289.8L10.94 289.8L10.94 289.79L10.93 289.78L10.93 289.77L10.93 289.76L10.92 289.75L10.9 289.72L10.89 289.71L10.89 289.7L10.88 289.69L10.88 289.68L10.88 289.67L10.87 289.66L10.87 289.66L10.87 289.65L10.87 289.65L10.86 289.64L10.86 289.63L10.86 289.63L10.85 289.63L10.85 289.63L10.84 289.63L10.84 289.51L10.84 289.49L10.84 289.48L10.84 289.46L10.83 289.44L10.83 289.43L10.83 289.41L10.83 289.4L10.83 289.38L10.83 289.36L10.83 289.36L10.83 289.33L10.83 289.31L10.83 289.3L10.83 289.28L10.83 289.27L10.83 289.25L10.84 289.23L10.84 289.22L10.84 289.2L10.84 289.19L10.84 200.63L11.84 199.63L11.84 198.63L12.76 198.63L12.76 198.62L12.76 198.6L12.76 198.58L12.77 198.57L12.77 198.55L12.78 198.53L12.78 198.52L12.78 198.5L12.79 198.48L12.79 198.47L12.8 198.45L12.8 198.43L12.81 198.43L12.81 198.42L12.81 198.41L12.82 198.39L12.82 198.38L12.83 198.36L12.84 198.35L12.84 198.33L12.85 198.32L12.86 198.3L12.86 198.28L12.85 198.26L12.85 198.24L12.85 198.22L12.84 198.2L12.84 198.18L12.82 198.1L12.82 198.08L12.82 198.06L12.81 198.04L12.81 198.02L12.81 198L12.8 197.98L12.8 197.96L12.8 197.95L12.8 197.93L12.79 197.91L12.79 197.89L12.79 197.87L12.79 197.85L12.79 197.84L12.79 197.82L12.79 197.8L12.79 197.79L12.79 197.77L12.79 197.76L12.79 197.74L12.8 197.73L12.8 197.71L12.8 197.7L12.81 197.69L12.81 197.68L12.81 197.67L12.82 197.65L12.83 197.64L12.83 197.64L12.84 197.63L12.86 197.62L12.87 197.61L12.89 197.6L12.91 197.59L12.92 197.58L12.95 197.58L12.97 197.58L12.99 197.58L13.02 197.58L13.04 197.58L13.07 197.58L13.09 197.58L13.12 197.58L13.15 197.58L13.18 197.59L13.21 197.59L13.24 197.6L13.27 197.6L13.3 197.61L13.33 197.61L13.36 197.62L13.39 197.63L13.42 197.63L13.45 197.64L13.48 197.64L13.51 197.65L13.54 197.65L13.57 197.65L13.6 197.66L13.62 197.66L13.65 197.66L13.68 197.66L13.7 197.66L13.73 197.66L13.75 197.66L13.77 197.66L13.79 197.65L13.81 197.64L13.83 197.64L13.84 197.63L13.85 197.61L13.86 197.59L13.86 197.58L13.87 197.55L13.87 197.53L13.88 197.51L13.88 197.49L13.88 197.46L13.88 197.44L13.87 197.41L13.87 197.38L13.87 197.35L13.87 197.33L13.86 197.3L13.86 197.27L13.85 197.24L13.85 197.21L13.84 197.18L13.83 197.11L13.82 197.08L13.82 197.05L13.81 197.02L13.81 196.99L13.8 196.96L13.8 196.94L13.8 196.91L13.79 196.88L13.79 196.85L13.79 196.83L13.79 196.8L13.79 196.78L13.79 196.75L13.8 196.73L13.8 196.71L13.81 196.69L13.81 196.67L13.82 196.66L13.83 196.64L13.84 196.63L13.85 196.62L13.86 196.61L13.87 196.6L13.89 196.6L13.9 196.59L13.91 196.59L13.93 196.58L13.94 196.58L13.96 196.58L13.97 196.58L13.99 196.58L14.01 196.57L14.02 196.57L14.04 196.57L14.06 196.58L14.08 196.58L14.1 196.58L14.12 196.58L14.14 196.58L14.16 196.59L14.18 196.59L14.2 196.59L14.23 196.6L14.25 196.6L14.27 196.6L14.29 196.61L14.31 196.61L14.34 196.61L14.38 196.62L14.4 196.63L14.42 196.63L14.45 196.63L14.47 196.64L14.49 196.64L14.51 196.64L14.53 196.65L14.55 196.65L14.57 196.65L14.59 196.66L14.6 196.65L14.61 196.65L14.61 196.65L14.62 196.64L14.63 196.64L14.65 196.63L14.65 196.63L14.66 196.63L14.67 196.63L14.68 196.62L14.69 196.62L14.7 196.62L14.71 196.62L14.72 196.61L14.74 196.61L14.75 196.61L14.77 196.6L14.8 196.6L14.8 196.6L14.87 196.59L14.88 196.59L15.84 195.63L16.3 195.63L16.31 195.63L16.32 195.63L64.84 195.63ZM63.97 295.51L63.96 295.51L63.95 295.51L63.95 295.51L63.93 295.52L63.91 295.52L63.9 295.53L63.89 295.53L63.89 295.53L63.88 295.53L63.87 295.53L63.86 295.53L63.86 295.54L63.86 295.55L63.85 295.58L63.85 295.58L63.85 295.59L63.85 295.6L63.85 295.61L63.85 295.61L63.85 295.62L63.85 295.62L63.84 295.63L63.84 295.63L63.84 295.63L63.84 295.63L63.98 295.51L63.98 295.51L63.97 295.51ZM43.35 281.61L43.15 281.65L42.97 281.66L42.84 281.63L38.84 281.63L38.71 281.66L38.53 281.65L38.33 281.61L38.13 281.58L37.96 281.58L37.84 281.63L37.79 281.75L37.8 281.92L37.83 282.11L37.86 282.32L37.88 282.5L37.84 282.63L37.79 282.65L37.73 282.66L37.66 282.66L37.58 282.65L37.49 282.64L37.41 282.63L36.84 282.63L37.23 282.6L37.15 282.58L37.07 282.58L37 282.58L36.94 282.58L36.88 282.6L36.84 282.63L36.79 282.75L36.8 282.92L36.83 283.11L36.86 283.32L36.88 283.5L36.84 283.63L36.84 287.63L36.87 287.77L36.86 287.95L36.83 288.13L36.8 288.32L36.8 288.49L36.84 288.63L36.94 288.67L37.12 288.67L37.33 288.63L37.54 288.6L37.73 288.59L37.84 288.63L37.89 288.75L37.89 288.92L37.85 289.11L37.82 289.32L37.81 289.5L37.84 289.63L42.84 289.63L42.99 289.59L43.16 289.61L43.35 289.64L43.54 289.67L43.71 289.67L43.84 289.63L43.89 289.53L43.88 289.35L43.85 289.14L43.82 288.92L43.8 288.74L43.84 288.63L43.96 288.58L44.13 288.58L44.33 288.61L44.53 288.65L44.71 288.66L44.84 288.63L44.84 283.63L44.81 283.5L44.82 283.32L44.85 283.11L44.89 282.92L44.89 282.75L44.84 282.63L44.72 282.58L44.55 282.58L44.35 282.61L44.15 282.65L43.97 282.66L43.84 282.63L43.81 282.5L43.82 282.32L43.85 282.11L43.89 281.92L43.89 281.75L43.84 281.63L43.72 281.58L43.55 281.58L43.35 281.61ZM15.84 277.63L65.84 277.63L65.84 213.63L15.84 213.63L15.84 277.63ZM27.84 206.63L52.84 206.63L52.84 204.63L27.84 204.63L27.84 206.63Z" id="kviB80Fa"></path><path d="M64.84 295.56C68.16 295.56 70.84 292.7 70.84 289.18" id="f2d8rZCW4w"></path><path d="M225.33 252.35L237.62 290.9L236.59 292.93L234.54 293.95L232.44 295.47L230.45 295.97L146.5 295.97L144.22 292.45L144.45 289.89L144.45 288.87L156.74 252.35L224.82 252.35" id="ecdvS6gtA"></path><path d="M340.88 8.23C340.83 8.23 340.81 8.21 340.76 8.21C339.62 8.21 339.49 9.76 340.36 10.13C340.51 10.23 340.68 10.31 340.91 10.31C341.55 10.31 341.86 9.82 341.88 9.33C343.04 10.61 352.34 20.86 353.5 22.14C352.89 22.19 352.6 22.7 352.63 23.2C352.61 23.49 352.71 23.78 352.91 23.99C353.06 24.27 353.33 24.47 353.73 24.47C354.39 24.47 354.71 23.96 354.7 23.45C354.7 23.46 354.77 23.54 354.78 23.55C354.78 15.03 348.52 8.13 340.78 8.13C340.8 8.15 340.87 8.22 340.88 8.23Z" id="d34WSwG7Rm"></path></defs><g><g><use xlink:href="#bBTjIVBzV" opacity="1" fill="#000000" fill-opacity="1"></use><g><use xlink:href="#bBTjIVBzV" opacity="1" fill-opacity="0" stroke="#000000" stroke-width="1" stroke-opacity="0"></use></g></g><g><use xlink:href="#a9lUdYMjU" opacity="1" fill="#000000" fill-opacity="1"></use><g><use xlink:href="#a9lUdYMjU" opacity="1" fill-opacity="0" stroke="#000000" stroke-width="1" stroke-opacity="0"></use></g></g><g><use xlink:href="#c16OKNgBc2" opacity="1" fill="#000000" fill-opacity="1"></use><g><use xlink:href="#c16OKNgBc2" opacity="1" fill-opacity="0" stroke="#000000" stroke-width="1" stroke-opacity="0"></use></g></g><g><use xlink:href="#b5tan9Idnl" opacity="1" fill="#000000" fill-opacity="1"></use><g><use xlink:href="#b5tan9Idnl" opacity="1" fill-opacity="0" stroke="#000000" stroke-width="1" stroke-opacity="0"></use></g></g><g><use xlink:href="#a1lVcf1fx" opacity="1" fill="#000000" fill-opacity="1"></use><g><use xlink:href="#a1lVcf1fx" opacity="1" fill-opacity="0" stroke="#000000" stroke-width="1" stroke-opacity="0"></use></g></g><g><use xlink:href="#a1iOdzheGs" opacity="1" fill="#000000" fill-opacity="1"></use><g><use xlink:href="#a1iOdzheGs" opacity="1" fill-opacity="0" stroke="#000000" stroke-width="1" stroke-opacity="0"></use></g></g><g><use xlink:href="#d1qXoPkUfG" opacity="1" fill="#000000" fill-opacity="1"></use><g><use xlink:href="#d1qXoPkUfG" opacity="1" fill-opacity="0" stroke="#000000" stroke-width="1" stroke-opacity="0"></use></g></g><g><use xlink:href="#agZvJOI8t" opacity="1" fill="#000000" fill-opacity="1"></use><g><use xlink:href="#agZvJOI8t" opacity="1" fill-opacity="0" stroke="#000000" stroke-width="1" stroke-opacity="0"></use></g></g><g><use xlink:href="#a3MD8HBHN" opacity="1" fill="#000000" fill-opacity="1"></use><g><use xlink:href="#a3MD8HBHN" opacity="1" fill-opacity="0" stroke="#000000" stroke-width="1" stroke-opacity="0"></use></g></g><g><use xlink:href="#c1O6yXCXGE" opacity="1" fill="#000000" fill-opacity="1"></use><g><use xlink:href="#c1O6yXCXGE" opacity="1" fill-opacity="0" stroke="#000000" stroke-width="1" stroke-opacity="0"></use></g></g><g><use xlink:href="#a67IBBgQb" opacity="1" fill="#000000" fill-opacity="1"></use><g><use xlink:href="#a67IBBgQb" opacity="1" fill-opacity="0" stroke="#000000" stroke-width="1" stroke-opacity="0"></use></g></g><g><use xlink:href="#abJBLwPxI" opacity="1" fill="#000000" fill-opacity="1"></use><g><use xlink:href="#abJBLwPxI" opacity="1" fill-opacity="0" stroke="#000000" stroke-width="1" stroke-opacity="0"></use></g></g><g><use xlink:href="#dQHhUwf3o" opacity="1" fill="#000000" fill-opacity="1"></use><g><use xlink:href="#dQHhUwf3o" opacity="1" fill-opacity="0" stroke="#000000" stroke-width="1" stroke-opacity="0"></use></g></g><g><use xlink:href="#c6z0C57xb" opacity="1" fill="#000000" fill-opacity="1"></use><g><use xlink:href="#c6z0C57xb" opacity="1" fill-opacity="0" stroke="#000000" stroke-width="1" stroke-opacity="0"></use></g></g><g><use xlink:href="#a4y42LjEQ" opacity="1" fill="#000000" fill-opacity="1"></use><g><use xlink:href="#a4y42LjEQ" opacity="1" fill-opacity="0" stroke="#000000" stroke-width="1" stroke-opacity="0"></use></g></g><g><use xlink:href="#j983GnOE5" opacity="1" fill="#000000" fill-opacity="1"></use><g><use xlink:href="#j983GnOE5" opacity="1" fill-opacity="0" stroke="#000000" stroke-width="1" stroke-opacity="0"></use></g></g><g><use xlink:href="#a3QOY0rUl3" opacity="1" fill="#000000" fill-opacity="1"></use><g><use xlink:href="#a3QOY0rUl3" opacity="1" fill-opacity="0" stroke="#000000" stroke-width="1" stroke-opacity="0"></use></g></g><g><use xlink:href="#c3hlUzBSdp" opacity="1" fill="#000000" fill-opacity="1"></use><g><use xlink:href="#c3hlUzBSdp" opacity="1" fill-opacity="0" stroke="#000000" stroke-width="1" stroke-opacity="0"></use></g></g><g><use xlink:href="#eK2VezpJ8" opacity="1" fill="#000000" fill-opacity="1"></use><g><use xlink:href="#eK2VezpJ8" opacity="1" fill-opacity="0" stroke="#000000" stroke-width="1" stroke-opacity="0"></use></g></g><g><use xlink:href="#c916lCApF" opacity="1" fill="#000000" fill-opacity="1"></use><g><use xlink:href="#c916lCApF" opacity="1" fill-opacity="0" stroke="#000000" stroke-width="1" stroke-opacity="0"></use></g></g><g><use xlink:href="#a1EFkzBQm2" opacity="1" fill="#000000" fill-opacity="1"></use><g><use xlink:href="#a1EFkzBQm2" opacity="1" fill-opacity="0" stroke="#000000" stroke-width="1" stroke-opacity="0"></use></g></g><g><use xlink:href="#d4DzQNp9n" opacity="1" fill="#000000" fill-opacity="1"></use><g><use xlink:href="#d4DzQNp9n" opacity="1" fill-opacity="0" stroke="#000000" stroke-width="1" stroke-opacity="0"></use></g></g><g><use xlink:href="#g10KtaVoXq" opacity="1" fill="#000000" fill-opacity="1"></use><g><use xlink:href="#g10KtaVoXq" opacity="1" fill-opacity="0" stroke="#000000" stroke-width="1" stroke-opacity="0"></use></g></g><g><use xlink:href="#bl98JxBsb" opacity="1" fill="#000000" fill-opacity="1"></use><g><use xlink:href="#bl98JxBsb" opacity="1" fill-opacity="0" stroke="#000000" stroke-width="1" stroke-opacity="0"></use></g></g><g><use xlink:href="#d4MhPV4UWv" opacity="1" fill="#000000" fill-opacity="1"></use><g><use xlink:href="#d4MhPV4UWv" opacity="1" fill-opacity="0" stroke="#000000" stroke-width="1" stroke-opacity="0"></use></g></g><g><use xlink:href="#bhYuIFUV2" opacity="1" fill="#000000" fill-opacity="1"></use><g><use xlink:href="#bhYuIFUV2" opacity="1" fill-opacity="0" stroke="#000000" stroke-width="1" stroke-opacity="0"></use></g></g><g><use xlink:href="#cKmPlTrn" opacity="1" fill="#000000" fill-opacity="1"></use><g><use xlink:href="#cKmPlTrn" opacity="1" fill-opacity="0" stroke="#000000" stroke-width="1" stroke-opacity="0"></use></g></g><g><use xlink:href="#bJIKptsAh" opacity="1" fill="#000000" fill-opacity="1"></use><g><use xlink:href="#bJIKptsAh" opacity="1" fill-opacity="0" stroke="#000000" stroke-width="1" stroke-opacity="0"></use></g></g><g><use xlink:href="#b13VTC0iQi" opacity="1" fill="#000000" fill-opacity="1"></use><g><use xlink:href="#b13VTC0iQi" opacity="1" fill-opacity="0" stroke="#000000" stroke-width="1" stroke-opacity="0"></use></g></g><g><use xlink:href="#aoEsJZZYw" opacity="1" fill="#000000" fill-opacity="1"></use><g><use xlink:href="#aoEsJZZYw" opacity="1" fill-opacity="0" stroke="#000000" stroke-width="1" stroke-opacity="0"></use></g></g><g><use xlink:href="#e3oIbfRQzD" opacity="1" fill="#000000" fill-opacity="1"></use><g><use xlink:href="#e3oIbfRQzD" opacity="1" fill-opacity="0" stroke="#000000" stroke-width="1" stroke-opacity="0"></use></g></g><g><use xlink:href="#e2usq2y1rS" opacity="1" fill="#000000" fill-opacity="1"></use><g><use xlink:href="#e2usq2y1rS" opacity="1" fill-opacity="0" stroke="#000000" stroke-width="1" stroke-opacity="0"></use></g></g><g><use xlink:href="#a9z49aqJu" opacity="1" fill="#000000" fill-opacity="1"></use><g><use xlink:href="#a9z49aqJu" opacity="1" fill-opacity="0" stroke="#000000" stroke-width="1" stroke-opacity="0"></use></g></g><g><use xlink:href="#c1QZ1fhZL5" opacity="1" fill="#000000" fill-opacity="1"></use><g><use xlink:href="#c1QZ1fhZL5" opacity="1" fill-opacity="0" stroke="#000000" stroke-width="1" stroke-opacity="0"></use></g></g><g><use xlink:href="#c2a2qDunpE" opacity="1" fill="#000000" fill-opacity="1"></use><g><use xlink:href="#c2a2qDunpE" opacity="1" fill-opacity="0" stroke="#000000" stroke-width="1" stroke-opacity="0"></use></g></g><g><use xlink:href="#aHaIO7dr1" opacity="1" fill="#000000" fill-opacity="1"></use><g><use xlink:href="#aHaIO7dr1" opacity="1" fill-opacity="0" stroke="#000000" stroke-width="1" stroke-opacity="0"></use></g></g><g><use xlink:href="#h22fYsgGj4" opacity="1" fill="#000000" fill-opacity="1"></use><g><use xlink:href="#h22fYsgGj4" opacity="1" fill-opacity="0" stroke="#000000" stroke-width="1" stroke-opacity="0"></use></g></g><g><use xlink:href="#d1NHqd9Pa" opacity="1" fill="#000000" fill-opacity="1"></use><g><use xlink:href="#d1NHqd9Pa" opacity="1" fill-opacity="0" stroke="#000000" stroke-width="1" stroke-opacity="0"></use></g></g><g><use xlink:href="#d3q3YZXuH" opacity="1" fill="#000000" fill-opacity="1"></use><g><use xlink:href="#d3q3YZXuH" opacity="1" fill-opacity="0" stroke="#000000" stroke-width="1" stroke-opacity="0"></use></g></g><g><use xlink:href="#gy0itYsZe" opacity="1" fill="#000000" fill-opacity="1"></use><g><use xlink:href="#gy0itYsZe" opacity="1" fill-opacity="0" stroke="#000000" stroke-width="1" stroke-opacity="0"></use></g></g><g><use xlink:href="#b282NaXFo" opacity="1" fill="#000000" fill-opacity="1"></use><g><use xlink:href="#b282NaXFo" opacity="1" fill-opacity="0" stroke="#000000" stroke-width="1" stroke-opacity="0"></use></g></g><g><use xlink:href="#dOqjsMRic" opacity="1" fill="#000000" fill-opacity="1"></use><g><use xlink:href="#dOqjsMRic" opacity="1" fill-opacity="0" stroke="#000000" stroke-width="1" stroke-opacity="0"></use></g></g><g><use xlink:href="#j4A7DiDwUR" opacity="1" fill="#000000" fill-opacity="1"></use><g><use xlink:href="#j4A7DiDwUR" opacity="1" fill-opacity="0" stroke="#000000" stroke-width="1" stroke-opacity="0"></use></g></g><g><use xlink:href="#c3srkR3Jkj" opacity="1" fill="#000000" fill-opacity="1"></use><g><use xlink:href="#c3srkR3Jkj" opacity="1" fill-opacity="0" stroke="#000000" stroke-width="1" stroke-opacity="0"></use></g></g><g><use xlink:href="#f3HX9nUlS" opacity="1" fill="#000000" fill-opacity="1"></use><g><use xlink:href="#f3HX9nUlS" opacity="1" fill-opacity="0" stroke="#000000" stroke-width="1" stroke-opacity="0"></use></g></g><g><use xlink:href="#b6aGEUbvz" opacity="1" fill="#000000" fill-opacity="1"></use><g><use xlink:href="#b6aGEUbvz" opacity="1" fill-opacity="0" stroke="#000000" stroke-width="1" stroke-opacity="0"></use></g></g><g><use xlink:href="#a1afsbWWFT" opacity="1" fill="#000000" fill-opacity="1"></use><g><use xlink:href="#a1afsbWWFT" opacity="1" fill-opacity="0" stroke="#000000" stroke-width="1" stroke-opacity="0"></use></g></g><g><use xlink:href="#a1eZfCb7yR" opacity="1" fill="#000000" fill-opacity="1"></use><g><use xlink:href="#a1eZfCb7yR" opacity="1" fill-opacity="0" stroke="#000000" stroke-width="1" stroke-opacity="0"></use></g></g><g><use xlink:href="#an5HM8zgj" opacity="1" fill="#000000" fill-opacity="1"></use><g><use xlink:href="#an5HM8zgj" opacity="1" fill-opacity="0" stroke="#000000" stroke-width="1" stroke-opacity="0"></use></g></g><g><use xlink:href="#fWuwL5ZlR" opacity="1" fill="#000000" fill-opacity="1"></use><g><use xlink:href="#fWuwL5ZlR" opacity="1" fill-opacity="0" stroke="#000000" stroke-width="1" stroke-opacity="0"></use></g></g><g><use xlink:href="#a4WEfnSXj" opacity="1" fill="#000000" fill-opacity="1"></use><g><use xlink:href="#a4WEfnSXj" opacity="1" fill-opacity="0" stroke="#000000" stroke-width="1" stroke-opacity="0"></use></g></g><g><use xlink:href="#a6TVhZVQY9" opacity="1" fill="#000000" fill-opacity="1"></use><g><use xlink:href="#a6TVhZVQY9" opacity="1" fill-opacity="0" stroke="#000000" stroke-width="1" stroke-opacity="0"></use></g></g><g><use xlink:href="#e3UDrF13R" opacity="1" fill="#000000" fill-opacity="1"></use><g><use xlink:href="#e3UDrF13R" opacity="1" fill-opacity="0" stroke="#000000" stroke-width="1" stroke-opacity="0"></use></g></g><g><use xlink:href="#addsk5y58" opacity="1" fill="#000000" fill-opacity="1"></use><g><use xlink:href="#addsk5y58" opacity="1" fill-opacity="0" stroke="#000000" stroke-width="1" stroke-opacity="0"></use></g></g><g><use xlink:href="#d5j3IX8ds" opacity="1" fill="#000000" fill-opacity="1"></use><g><use xlink:href="#d5j3IX8ds" opacity="1" fill-opacity="0" stroke="#000000" stroke-width="1" stroke-opacity="0"></use></g></g><g><use xlink:href="#a76p0JhvP" opacity="1" fill="#000000" fill-opacity="1"></use><g><use xlink:href="#a76p0JhvP" opacity="1" fill-opacity="0" stroke="#000000" stroke-width="1" stroke-opacity="0"></use></g></g><g><use xlink:href="#bH5PwSIIp" opacity="1" fill="#000000" fill-opacity="1"></use><g><use xlink:href="#bH5PwSIIp" opacity="1" fill-opacity="0" stroke="#000000" stroke-width="1" stroke-opacity="0"></use></g></g><g><use xlink:href="#a3UZcdcKnY" opacity="1" fill="#000000" fill-opacity="1"></use><g><use xlink:href="#a3UZcdcKnY" opacity="1" fill-opacity="0" stroke="#000000" stroke-width="1" stroke-opacity="0"></use></g></g><g><use xlink:href="#a1RZ0fjeK7" opacity="1" fill="#000000" fill-opacity="1"></use><g><use xlink:href="#a1RZ0fjeK7" opacity="1" fill-opacity="0" stroke="#000000" stroke-width="1" stroke-opacity="0"></use></g></g><g><use xlink:href="#b2BPGSYTCR" opacity="1" fill="#000000" fill-opacity="1"></use><g><use xlink:href="#b2BPGSYTCR" opacity="1" fill-opacity="0" stroke="#000000" stroke-width="1" stroke-opacity="0"></use></g></g><g><use xlink:href="#a1BULlbNb9" opacity="1" fill="#000000" fill-opacity="1"></use><g><use xlink:href="#a1BULlbNb9" opacity="1" fill-opacity="0" stroke="#000000" stroke-width="1" stroke-opacity="0"></use></g></g><g><use xlink:href="#d6Y31xLP9a" opacity="1" fill="#000000" fill-opacity="1"></use><g><use xlink:href="#d6Y31xLP9a" opacity="1" fill-opacity="0" stroke="#000000" stroke-width="1" stroke-opacity="0"></use></g></g><g><use xlink:href="#b2xpJHFBqp" opacity="1" fill="#000000" fill-opacity="1"></use><g><use xlink:href="#b2xpJHFBqp" opacity="1" fill-opacity="0" stroke="#000000" stroke-width="1" stroke-opacity="0"></use></g></g><g><use xlink:href="#e1Jv3OVYZT" opacity="1" fill="#000000" fill-opacity="1"></use><g><use xlink:href="#e1Jv3OVYZT" opacity="1" fill-opacity="0" stroke="#000000" stroke-width="1" stroke-opacity="0"></use></g></g><g><use xlink:href="#b1HPLrsNcA" opacity="1" fill="#000000" fill-opacity="1"></use><g><use xlink:href="#b1HPLrsNcA" opacity="1" fill-opacity="0" stroke="#000000" stroke-width="1" stroke-opacity="0"></use></g></g><g><use xlink:href="#a4pjjqZ7h" opacity="1" fill="#000000" fill-opacity="1"></use><g><use xlink:href="#a4pjjqZ7h" opacity="1" fill-opacity="0" stroke="#000000" stroke-width="1" stroke-opacity="0"></use></g></g><g><use xlink:href="#bmem3d1T" opacity="1" fill="#000000" fill-opacity="1"></use><g><use xlink:href="#bmem3d1T" opacity="1" fill-opacity="0" stroke="#000000" stroke-width="1" stroke-opacity="0"></use></g></g><g><use xlink:href="#c1TYxMn5Z" opacity="1" fill="#000000" fill-opacity="1"></use><g><use xlink:href="#c1TYxMn5Z" opacity="1" fill-opacity="0" stroke="#000000" stroke-width="1" stroke-opacity="0"></use></g></g><g><use xlink:href="#dfZHZO5rc" opacity="1" fill="#000000" fill-opacity="1"></use><g><use xlink:href="#dfZHZO5rc" opacity="1" fill-opacity="0" stroke="#000000" stroke-width="1" stroke-opacity="0"></use></g></g><g><use xlink:href="#fouP3yG6d" opacity="1" fill="#000000" fill-opacity="1"></use><g><use xlink:href="#fouP3yG6d" opacity="1" fill-opacity="0" stroke="#000000" stroke-width="1" stroke-opacity="0"></use></g></g><g><use xlink:href="#a2giUitzSs" opacity="1" fill="#000000" fill-opacity="1"></use><g><use xlink:href="#a2giUitzSs" opacity="1" fill-opacity="0" stroke="#000000" stroke-width="1" stroke-opacity="0"></use></g></g><g><use xlink:href="#c3jZqYVcGy" opacity="1" fill="#000000" fill-opacity="1"></use><g><use xlink:href="#c3jZqYVcGy" opacity="1" fill-opacity="0" stroke="#000000" stroke-width="1" stroke-opacity="0"></use></g></g><g><use xlink:href="#aG8YwLB3F" opacity="1" fill="#000000" fill-opacity="1"></use><g><use xlink:href="#aG8YwLB3F" opacity="1" fill-opacity="0" stroke="#000000" stroke-width="1" stroke-opacity="0"></use></g></g><g><use xlink:href="#h52P1iB7ZX" opacity="1" fill="#000000" fill-opacity="1"></use><g><use xlink:href="#h52P1iB7ZX" opacity="1" fill-opacity="0" stroke="#000000" stroke-width="1" stroke-opacity="0"></use></g></g><g><use xlink:href="#d2H92WrBQK" opacity="1" fill="#000000" fill-opacity="1"></use><g><use xlink:href="#d2H92WrBQK" opacity="1" fill-opacity="0" stroke="#000000" stroke-width="1" stroke-opacity="0"></use></g></g><g><use xlink:href="#f12ZgwigCG" opacity="1" fill="#000000" fill-opacity="1"></use><g><use xlink:href="#f12ZgwigCG" opacity="1" fill-opacity="0" stroke="#000000" stroke-width="1" stroke-opacity="0"></use></g></g><g><use xlink:href="#b8hTdQTkR" opacity="1" fill="#000000" fill-opacity="1"></use><g><use xlink:href="#b8hTdQTkR" opacity="1" fill-opacity="0" stroke="#000000" stroke-width="1" stroke-opacity="0"></use></g></g><g><use xlink:href="#a7lLkGvTVE" opacity="1" fill="#000000" fill-opacity="1"></use><g><use xlink:href="#a7lLkGvTVE" opacity="1" fill-opacity="0" stroke="#000000" stroke-width="1" stroke-opacity="0"></use></g></g><g><use xlink:href="#bCDXXFOPo" opacity="1" fill="#000000" fill-opacity="1"></use><g><use xlink:href="#bCDXXFOPo" opacity="1" fill-opacity="0" stroke="#000000" stroke-width="1" stroke-opacity="0"></use></g></g><g><use xlink:href="#a3w15r3K5r" opacity="1" fill="#000000" fill-opacity="1"></use><g><use xlink:href="#a3w15r3K5r" opacity="1" fill-opacity="0" stroke="#000000" stroke-width="1" stroke-opacity="0"></use></g></g><g><use xlink:href="#bHVntDLHC" opacity="1" fill="#000000" fill-opacity="1"></use><g><use xlink:href="#bHVntDLHC" opacity="1" fill-opacity="0" stroke="#000000" stroke-width="1" stroke-opacity="0"></use></g></g><g><use xlink:href="#a1monnDHJQ" opacity="1" fill="#000000" fill-opacity="1"></use><g><use xlink:href="#a1monnDHJQ" opacity="1" fill-opacity="0" stroke="#000000" stroke-width="1" stroke-opacity="0"></use></g></g><g><use xlink:href="#a9a09XXjeX" opacity="1" fill="#000000" fill-opacity="1"></use><g><use xlink:href="#a9a09XXjeX" opacity="1" fill-opacity="0" stroke="#000000" stroke-width="1" stroke-opacity="0"></use></g></g><g><use xlink:href="#j2DiY05Og0" opacity="1" fill="#000000" fill-opacity="1"></use><g><use xlink:href="#j2DiY05Og0" opacity="1" fill-opacity="0" stroke="#000000" stroke-width="1" stroke-opacity="0"></use></g></g><g><use xlink:href="#kviB80Fa" opacity="1" fill="#000000" fill-opacity="1"></use><g><use xlink:href="#kviB80Fa" opacity="1" fill-opacity="0" stroke="#000000" stroke-width="1" stroke-opacity="0"></use></g></g><g><use xlink:href="#f2d8rZCW4w" opacity="1" fill="#000000" fill-opacity="1"></use><g><use xlink:href="#f2d8rZCW4w" opacity="1" fill-opacity="0" stroke="#000000" stroke-width="1" stroke-opacity="0"></use></g></g><g><use xlink:href="#ecdvS6gtA" opacity="1" fill="#000000" fill-opacity="1"></use><g><use xlink:href="#ecdvS6gtA" opacity="1" fill-opacity="0" stroke="#000000" stroke-width="1" stroke-opacity="0"></use></g></g><g><use xlink:href="#d34WSwG7Rm" opacity="1" fill="#000000" fill-opacity="1"></use><g><use xlink:href="#d34WSwG7Rm" opacity="1" fill-opacity="0" stroke="#000000" stroke-width="1" stroke-opacity="0"></use></g></g></g></svg>